<?xml version="1.0" standalone="no"?>
<!DOCTYPE svg PUBLIC "-//W3C//DTD SVG 20010904//EN"
 "http://www.w3.org/TR/2001/REC-SVG-20010904/DTD/svg10.dtd">
<svg version="1.0" xmlns="http://www.w3.org/2000/svg"
 width="437.000000pt" height="577.000000pt" viewBox="0 0 437.000000 577.000000"
 preserveAspectRatio="xMidYMid meet">

<g transform="translate(0.000000,577.000000) scale(0.100000,-0.100000)"
fill="#000000" stroke="none">
<path d="M0 2957 l0 -2803 44 -36 43 -37 7 61 c3 34 6 1293 6 2798 l0 2737
293 6 c430 9 2502 0 2524 -11 10 -5 43 -15 73 -22 58 -14 302 -111 392 -156
72 -36 191 -116 260 -176 32 -27 71 -54 88 -59 16 -6 30 -15 30 -20 0 -5 16
-26 35 -48 19 -21 35 -41 35 -44 0 -4 27 -41 59 -84 153 -201 257 -438 320
-728 54 -249 64 -346 58 -575 -6 -227 -19 -308 -71 -454 -103 -282 -257 -478
-810 -1031 -476 -475 -601 -577 -797 -652 -129 -49 -208 -65 -324 -64 -154 1
-297 48 -454 149 -164 105 -257 205 -332 357 -65 133 -82 214 -83 400 0 160 8
215 56 382 11 38 9 56 -15 155 -33 140 -52 325 -44 438 19 274 208 544 488
698 166 91 412 111 642 52 146 -38 207 -75 352 -212 139 -131 226 -207 259
-223 10 -5 22 -17 24 -25 5 -13 3 -13 -14 0 -17 12 -17 12 -6 0 7 -8 16 -15
20 -16 12 -1 272 -263 272 -274 0 -5 -98 -109 -217 -231 l-218 -221 -273 263
c-150 145 -290 274 -310 288 -27 18 -54 26 -99 29 -54 4 -71 0 -130 -27 -73
-35 -125 -78 -150 -126 -20 -37 -22 -155 -4 -207 14 -41 98 -125 153 -151 18
-9 44 -33 58 -53 14 -19 36 -49 49 -65 16 -20 21 -36 17 -52 -4 -12 -53 -61
-109 -108 -56 -47 -119 -110 -140 -140 -32 -48 -39 -66 -44 -127 -8 -97 12
-147 80 -207 52 -46 142 -83 172 -71 8 3 17 1 20 -4 4 -6 35 -10 70 -10 l64 0
268 258 c309 298 413 407 413 432 0 10 10 20 23 24 28 7 194 177 270 276 117
154 196 333 218 496 14 107 6 402 -15 514 -28 149 -84 265 -198 401 -136 162
-323 293 -584 406 l-109 48 -996 3 -997 2 -3 -247 c-4 -238 -4 -1835 -1 -3376
l2 -727 1003 3 c551 2 1023 7 1049 10 90 11 321 130 442 227 76 60 192 180
233 240 125 185 193 412 193 649 0 128 -21 333 -41 407 -10 37 -8 44 15 79 14
21 26 45 26 54 0 10 13 21 30 26 16 6 98 78 190 167 88 87 165 158 170 158 13
0 95 -113 124 -170 51 -99 96 -285 117 -481 14 -123 6 -500 -11 -574 -94 -399
-211 -618 -464 -870 -181 -181 -302 -267 -541 -385 -220 -109 -367 -164 -466
-175 -77 -8 -592 -12 -1791 -14 l-897 -1 26 -40 27 -40 2035 0 2036 0 14 31
c14 32 103 109 127 109 12 0 14 390 14 2749 l0 2750 -21 6 c-26 8 -109 83
-109 98 0 5 22 -11 50 -37 45 -43 70 -56 70 -39 0 4 -17 24 -37 45 -20 21 -32
38 -27 38 6 0 21 -11 34 -25 31 -33 40 -32 40 5 l0 30 -2185 0 -2185 0 0
-2803z"/>
<path d="M3735 5230 c10 -11 20 -20 22 -20 2 0 -1 9 -7 20 -6 11 -16 20 -22
20 -6 0 -3 -9 7 -20z"/>
<path d="M3640 2395 c0 -8 2 -15 4 -15 2 0 6 7 10 15 3 8 1 15 -4 15 -6 0 -10
-7 -10 -15z"/>
<path d="M0 117 c0 -20 107 -121 114 -108 9 14 -12 44 -62 87 -44 37 -52 41
-52 21z"/>
<path d="M4291 76 c-29 -30 -52 -59 -50 -65 4 -12 129 95 129 110 0 22 -29 5
-79 -45z"/>
<path d="M4315 45 l-50 -45 53 0 52 0 0 45 c0 25 -1 45 -3 45 -2 0 -25 -20
-52 -45z"/>
<path d="M0 40 l0 -40 42 0 42 0 -39 40 c-21 22 -40 40 -42 40 -2 0 -3 -18 -3
-40z"/>
</g>
</svg>
