<?xml version="1.0" standalone="no"?>
<!DOCTYPE svg PUBLIC "-//W3C//DTD SVG 20010904//EN"
 "http://www.w3.org/TR/2001/REC-SVG-20010904/DTD/svg10.dtd">
<svg style="background-color:white;" version="1.0" xmlns="http://www.w3.org/2000/svg"
 width="285.000000pt" height="285.000000pt" viewBox="0 0 217.000000 285.000000"
 preserveAspectRatio="xMidYMid meet">

<g transform="translate(0.000000,285.000000) scale(0.100000,-0.100000)"
fill="#000000" stroke="none">
<path d="M0 1425 l0 -1425 1085 0 1085 0 0 1425 0 1425 -1085 0 -1085 0 0
-1425z m1540 1348 c125 -43 206 -92 304 -184 130 -123 208 -274 251 -484 48
-238 17 -460 -87 -613 -89 -131 -509 -563 -620 -636 -189 -126 -388 -109 -555
48 -91 84 -126 160 -131 282 -3 66 1 115 13 167 16 70 16 78 0 151 -26 115
-18 252 19 328 78 163 258 271 423 254 34 -4 92 -16 129 -27 63 -19 75 -29
240 -187 96 -91 173 -169 172 -172 -2 -4 -49 -56 -105 -115 l-102 -108 -147
141 c-162 156 -180 165 -252 137 -79 -32 -109 -95 -81 -171 6 -16 39 -53 75
-82 35 -29 64 -59 64 -66 0 -7 -25 -34 -56 -61 -68 -58 -94 -98 -94 -145 0
-73 68 -132 156 -134 38 -1 48 5 130 80 138 127 385 383 426 444 67 97 82 156
82 310 1 102 -4 149 -17 194 -42 137 -147 246 -320 331 l-111 55 -493 0 -493
0 0 -1075 0 -1075 506 0 c499 0 506 0 557 22 192 82 312 208 363 383 21 74 24
224 5 320 l-14 70 109 103 109 103 19 -23 c64 -77 98 -220 100 -413 0 -165
-20 -259 -85 -390 -99 -198 -298 -364 -554 -460 l-65 -25 -675 0 -675 0 0
1380 0 1381 693 -3 692 -3 95 -32z"/>
</g>
</svg>
